# xmcd CD database file
#
# Track frame offsets:
#	150
#	21259
#	48077
#	64528
#	88314
#	113206
#	131809
#	151488
#	169252
#	196509
#	217937
#	239729
#	257916
#
# Disc length: 3750 seconds
#
# Revision: 0
# Processed by: cddbd v1.5.2PL0 Copyright (c) Steve Scherf et al.
# Submitted via: CDex 1.51
#
DISCID=b50ea40d
DTITLE=Nelson Boschman Trio - Keeping Time Vol. 1
DYEAR=2004
DGENRE=Jazz
TTITLE0=01-Shenandoah
TTITLE1=02-Yearning
TTITLE2=03-Lo, How A Rose E'er Blooming
TTITLE3=04-Gloria-A Coda
TTITLE4=05-What A Wondrous Love
TTITLE5=06-Jerusalem Hymn
TTITLE6=07-When I Survey The Wondrous Cross
TTITLE7=08-Waking Up Happy	
TTITLE8=09-Fairest Lord Jesus
TTITLE9=10-Unexpected
TTITLE10=11-Holy God, We Praise Your Name
TTITLE11=12-Song For Ordinary Time
TTITLE12=13-O Love That Will Not Let Me Go
EXTD=YEAR: 2004
EXTT0=
EXTT1=
EXTT2=
EXTT3=
EXTT4=
EXTT5=
EXTT6=
EXTT7=
EXTT8=
EXTT9=
EXTT10=
EXTT11=
EXTT12=
PLAYORDER=
